<svg width="80" height="80" viewBox="0 0 80 80" fill="none" xmlns="http://www.w3.org/2000/svg">
<rect width="80" height="80" rx="40" fill="#FFD600"/>
<path d="M27.9533 57.2C26.2999 57.2 24.9799 56.6 23.9933 55.4C23.0066 54.2 22.5133 52.6267 22.5133 50.68C22.5133 48.5467 23.0066 46.5333 23.9933 44.64C24.9799 42.72 26.2866 41.1867 27.9133 40.04C29.5666 38.8667 31.3133 38.28 33.1533 38.28C33.7399 38.28 34.1266 38.4 34.3133 38.64C34.5266 38.8533 34.6999 39.2533 34.8333 39.84C35.3933 39.7333 35.9799 39.68 36.5933 39.68C37.8999 39.68 38.5533 40.1467 38.5533 41.08C38.5533 41.64 38.3533 42.9733 37.9533 45.08C37.3399 48.1467 37.0333 50.28 37.0333 51.48C37.0333 51.88 37.1266 52.2 37.3133 52.44C37.5266 52.68 37.7933 52.8 38.1133 52.8C38.6199 52.8 39.2333 52.48 39.9533 51.84C40.6733 51.1733 41.6466 50.1067 42.8733 48.64C43.1933 48.2667 43.5533 48.08 43.9533 48.08C44.2999 48.08 44.5666 48.24 44.7533 48.56C44.9666 48.88 45.0733 49.32 45.0733 49.88C45.0733 50.9467 44.8199 51.7733 44.3133 52.36C43.2199 53.72 42.0599 54.8667 40.8333 55.8C39.6066 56.7333 38.4199 57.2 37.2733 57.2C36.3933 57.2 35.5799 56.9067 34.8333 56.32C34.1133 55.7067 33.5666 54.88 33.1933 53.84C31.8066 56.08 30.0599 57.2 27.9533 57.2ZM29.3933 53.16C29.9799 53.16 30.5399 52.8133 31.0733 52.12C31.6066 51.4267 31.9933 50.5067 32.2333 49.36L33.7133 42C32.5933 42.0267 31.5533 42.4533 30.5933 43.28C29.6599 44.08 28.9133 45.1467 28.3533 46.48C27.7933 47.8133 27.5133 49.2267 27.5133 50.72C27.5133 51.5467 27.6733 52.16 27.9933 52.56C28.3399 52.96 28.8066 53.16 29.3933 53.16ZM49.7423 57.2C47.0757 57.2 45.129 56.1733 43.9023 54.12C42.7023 52.0667 42.1023 49.0933 42.1023 45.2C42.1023 41.76 42.529 38.0267 43.3823 34C44.2357 29.9467 45.4757 26.5067 47.1023 23.68C48.7557 20.8267 50.7157 19.4 52.9823 19.4C54.209 19.4 55.1957 19.9333 55.9423 21C56.689 22.04 57.0623 23.4 57.0623 25.08C57.0623 27.2667 56.649 29.44 55.8223 31.6C54.9957 33.76 53.6223 36.0267 51.7023 38.4C53.009 38.5067 54.1423 38.9467 55.1023 39.72C56.089 40.4933 56.8357 41.4933 57.3423 42.72C57.8757 43.9467 58.1423 45.28 58.1423 46.72C58.1423 48.72 57.7423 50.52 56.9423 52.12C56.169 53.72 55.1423 54.9733 53.8623 55.88C52.5823 56.76 51.209 57.2 49.7423 57.2ZM47.3823 41.12C49.1423 37.8933 50.5423 35.0533 51.5823 32.6C52.649 30.12 53.1823 27.92 53.1823 26C53.1823 25.1467 53.0757 24.4933 52.8623 24.04C52.6757 23.5867 52.409 23.36 52.0623 23.36C51.529 23.36 50.9423 24.16 50.3023 25.76C49.689 27.3333 49.1157 29.48 48.5823 32.2C48.049 34.92 47.649 37.8933 47.3823 41.12ZM49.9023 52.88C50.809 52.88 51.569 52.3867 52.1823 51.4C52.8223 50.4133 53.1423 48.9733 53.1423 47.08C53.1423 45.6133 52.8757 44.5067 52.3423 43.76C51.809 43.0133 51.169 42.64 50.4223 42.64C49.489 42.64 48.7023 43.12 48.0623 44.08C47.4223 45.04 47.1023 46.44 47.1023 48.28C47.1023 49.88 47.369 51.0533 47.9023 51.8C48.4357 52.52 49.1023 52.88 49.9023 52.88Z" fill="black"/>
</svg>
